<svg width="35" height="19" viewBox="0 0 35 19" fill="none" xmlns="http://www.w3.org/2000/svg">
<g clip-path="url(#clip0_811_403)">
<path fill-rule="evenodd" clip-rule="evenodd" d="M18.5239 18.4142L33.5239 3.41416C33.715 3.22967 33.8673 3.00898 33.9721 2.76497C34.077 2.52096 34.1321 2.25852 34.1344 1.99296C34.1368 1.72741 34.0862 1.46405 33.9856 1.21825C33.885 0.972462 33.7365 0.749158 33.5487 0.561372C33.3609 0.373587 33.1376 0.225081 32.8919 0.124519C32.6461 0.0239572 32.3827 -0.0266462 32.1171 -0.0243385C31.8516 -0.0220309 31.5891 0.0331416 31.3451 0.13796C31.1011 0.242778 30.8804 0.395142 30.6959 0.586162L17.1099 14.1722L3.52394 0.586162C3.33945 0.395142 3.11876 0.242778 2.87475 0.13796C2.63075 0.0331416 2.36831 -0.0220309 2.10275 -0.0243385C1.83719 -0.0266462 1.57383 0.0239572 1.32804 0.124519C1.08224 0.225081 0.858943 0.373587 0.671158 0.561372C0.483372 0.749158 0.334864 0.972462 0.234303 1.21825C0.133741 1.46405 0.0831378 1.72741 0.0854454 1.99296C0.087753 2.25852 0.142928 2.52096 0.247746 2.76497C0.352564 3.00898 0.504925 3.22967 0.695946 3.41416L15.6959 18.4142C16.071 18.7891 16.5796 18.9997 17.1099 18.9997C17.6403 18.9997 18.1489 18.7891 18.5239 18.4142Z" fill="white"/>
</g>
<defs>
<clipPath id="clip0_811_403">
<rect width="19" height="35" fill="white" transform="matrix(0 1 -1 0 35 0)"/>
</clipPath>
</defs>
</svg>
