<svg width="17" height="20" viewBox="0 0 17 20" fill="none" xmlns="http://www.w3.org/2000/svg">
<g clip-path="url(#clip0_805_378)">
<path d="M8.18199 10C10.692 10 12.727 7.761 12.727 5C12.727 2.239 11.257 0 8.18199 0C5.10699 0 3.63599 2.239 3.63599 5C3.63599 7.761 5.67199 10 8.18199 10Z" fill="white"/>
<path d="M0.0740942 17.2639C0.0730942 17.0699 0.0710942 17.2089 0.0740942 17.2639ZM15.4231 17.3769C15.4261 17.3319 15.4231 17.0649 15.4231 17.3769Z" fill="black"/>
<path d="M16.354 16.9939C16.274 12.1969 16.582 12.6839 11.524 11.8179C11.524 11.8179 9.842 12.6779 8.182 12.6779C6.522 12.6779 4.841 11.8179 4.841 11.8179C-0.163 12.6739 0.105 12.1669 0.012 16.8379C0.005 17.2189 0.002 17.2389 0 17.1949V17.6989C0 17.6989 1.206 19.9999 8.183 19.9999C15.16 19.9999 16.364 17.6999 16.364 17.6999V17.3259C16.364 17.3539 16.36 17.3009 16.354 16.9939Z" fill="white"/>
</g>
<defs>
<clipPath id="clip0_805_378">
<rect width="17" height="20" fill="white"/>
</clipPath>
</defs>
</svg>
