<svg width="25" height="16" viewBox="0 0 25 16" fill="none" xmlns="http://www.w3.org/2000/svg">
<g clip-path="url(#clip0_803_376)">
<path d="M23.91 5.03C23.9141 5.09659 23.9077 5.16341 23.891 5.228L22.356 11.095C22.3148 11.2413 22.2265 11.3701 22.1049 11.4613C21.9833 11.5526 21.835 11.6013 21.683 11.6L12.471 11.644H3.256C2.936 11.644 2.656 11.436 2.579 11.139L1.044 5.25C1.02704 5.18342 1.02096 5.11453 1.026 5.046C0.432 4.868 0 4.336 0 3.711C0 2.939 0.657 2.311 1.465 2.311C2.273 2.311 2.931 2.939 2.931 3.711C2.931 4.146 2.722 4.535 2.396 4.791L4.318 6.642C4.804 7.11 5.478 7.378 6.168 7.378C6.983 7.378 7.76 7.008 8.25 6.388L11.409 2.389C11.2739 2.262 11.1661 2.1088 11.0922 1.93877C11.0183 1.76873 10.9797 1.58541 10.979 1.4C10.979 0.628 11.636 0 12.444 0C13.253 0 13.91 0.628 13.91 1.4C13.91 1.774 13.754 2.114 13.503 2.366L13.506 2.369L16.641 6.379C17.131 7.004 17.911 7.378 18.729 7.378C19.425 7.378 20.079 7.118 20.571 6.648L22.506 4.801C22.3369 4.67373 22.1995 4.50916 22.1045 4.32011C22.0094 4.13105 21.9593 3.9226 21.958 3.711C21.958 2.939 22.615 2.311 23.423 2.311C24.232 2.311 24.889 2.939 24.889 3.711C24.889 4.321 24.479 4.838 23.909 5.031L23.91 5.03ZM22.206 13.733C22.206 13.365 21.894 13.067 21.508 13.067H3.458C3.073 13.067 2.76 13.365 2.76 13.733V15.333C2.76 15.702 3.073 16 3.458 16H21.508C21.894 16 22.206 15.702 22.206 15.333V13.733Z" fill="white"/>
</g>
<defs>
<clipPath id="clip0_803_376">
<rect width="25" height="16" fill="white"/>
</clipPath>
</defs>
</svg>
