<svg width="20" height="22" viewBox="0 0 20 22" fill="none" xmlns="http://www.w3.org/2000/svg">
<path d="M12.1041 14.338C12.1041 14.138 11.9311 14.014 11.7201 14.065C11.7201 14.065 10.7301 14.301 10.0001 14.301C9.27011 14.301 8.28011 14.065 8.28011 14.065C8.07011 14.015 7.89611 14.137 7.89611 14.338V15.396C7.89611 15.596 8.07511 15.761 8.29311 15.761H11.7071C11.9251 15.761 12.1041 15.596 12.1041 15.396V14.338ZM16.0331 0.73C16.0331 0.327 15.6781 0 15.2391 0H4.76111C4.32211 0 3.96711 0.327 3.96711 0.73V6.75C3.96711 8.634 4.57711 10.349 5.68311 11.579C6.22515 12.1871 6.89047 12.6729 7.63482 13.0039C8.37917 13.335 9.18548 13.5038 10.0001 13.499C11.6701 13.499 13.2021 12.817 14.3171 11.579C15.4241 10.349 16.0331 8.634 16.0331 6.749V0.73ZM3.21111 8.211C2.12511 7.84 1.62511 6.978 1.62511 5.545V2.286H3.09311V0.827H0.831109C0.393109 0.827 0.0371094 1.154 0.0371094 1.557V5.545C0.0371094 7.979 1.30511 9.461 3.63711 9.807C3.44223 9.29054 3.29951 8.75588 3.21111 8.211ZM4.76011 16.855C4.32211 16.855 3.96711 17.182 3.96711 17.585V21.197C3.96711 21.599 4.32211 21.927 4.76111 21.927H15.2401C15.6781 21.927 16.0331 21.599 16.0331 21.197V17.585C16.0331 17.182 15.6781 16.855 15.2401 16.855H4.76011ZM19.1691 0.827H16.9071V2.287H18.3751V5.545C18.3751 6.978 17.8751 7.84 16.7891 8.211C16.7007 8.75589 16.558 9.29055 16.3631 9.807C18.6951 9.461 19.9631 7.979 19.9631 5.545V1.557C19.9631 1.154 19.6071 0.827 19.1691 0.827Z" fill="white"/>
</svg>
