<svg width="22" height="16" viewBox="0 0 22 16" fill="none" xmlns="http://www.w3.org/2000/svg">
<path d="M13.2872 0.214681L12.5652 0.0176809C12.5202 0.00221765 12.4723 -0.00319928 12.425 0.00181076C12.3777 0.0068208 12.332 0.0221363 12.2912 0.0466809C12.2478 0.0708232 12.2095 0.1033 12.1786 0.142252C12.1477 0.181204 12.1248 0.225866 12.1112 0.273681L7.76621 15.2797C7.75054 15.3265 7.74502 15.3762 7.75002 15.4253C7.75502 15.4744 7.77042 15.522 7.79521 15.5647C7.84521 15.6537 7.92121 15.7137 8.02221 15.7447L8.74421 15.9417C8.78921 15.9572 8.83708 15.9627 8.88443 15.9577C8.93178 15.9526 8.97745 15.9373 9.01821 15.9127C9.0617 15.8888 9.10001 15.8566 9.13091 15.8178C9.16181 15.779 9.18469 15.7344 9.19821 15.6867L13.5432 0.680681C13.5587 0.633769 13.5641 0.58409 13.5589 0.534949C13.5537 0.485809 13.5382 0.438333 13.5132 0.395681C13.4647 0.308122 13.3834 0.242388 13.2872 0.214681ZM6.77721 3.14468C6.77721 3.04468 6.73821 2.95468 6.66121 2.87668L6.07821 2.29668C6.04372 2.26025 6.00217 2.23122 5.95609 2.21139C5.91001 2.19156 5.86037 2.18133 5.81021 2.18133C5.76004 2.18133 5.7104 2.19156 5.66432 2.21139C5.61824 2.23122 5.57669 2.26025 5.54221 2.29668L0.115206 7.71168C0.0788264 7.74599 0.0498413 7.78737 0.0300302 7.83328C0.0102192 7.8792 0 7.92868 0 7.97868C0 8.02869 0.0102192 8.07816 0.0300302 8.12408C0.0498413 8.16999 0.0788264 8.21137 0.115206 8.24568L5.54221 13.6627C5.57661 13.6992 5.61814 13.7284 5.66423 13.7483C5.71032 13.7682 5.76 13.7785 5.81021 13.7785C5.86042 13.7785 5.91009 13.7682 5.95618 13.7483C6.00227 13.7284 6.0438 13.6992 6.07821 13.6627L6.66021 13.0827C6.69674 13.0484 6.72586 13.0069 6.74577 12.9609C6.76568 12.9149 6.77594 12.8653 6.77594 12.8152C6.77594 12.7651 6.76568 12.7155 6.74577 12.6694C6.72586 12.6234 6.69674 12.582 6.66021 12.5477L2.08421 7.97868L6.66121 3.41068C6.69773 3.37644 6.72686 3.33509 6.74681 3.28917C6.76676 3.24326 6.7771 3.19474 6.77721 3.14468ZM21.1942 7.71268L15.7672 2.29568C15.7328 2.25913 15.6913 2.22999 15.6452 2.21004C15.5991 2.1901 15.5494 2.17976 15.4992 2.17968C15.449 2.17982 15.3994 2.19018 15.3533 2.21012C15.3072 2.23006 15.2657 2.25917 15.2312 2.29568L14.6492 2.87668C14.6127 2.911 14.5835 2.95244 14.5636 2.99845C14.5437 3.04446 14.5335 3.09405 14.5335 3.14418C14.5335 3.19431 14.5437 3.24391 14.5636 3.28991C14.5835 3.33592 14.6127 3.37736 14.6492 3.41168L19.2262 7.97968L14.6492 12.5477C14.6127 12.582 14.5835 12.6234 14.5636 12.6694C14.5437 12.7155 14.5335 12.7651 14.5335 12.8152C14.5335 12.8653 14.5437 12.9149 14.5636 12.9609C14.5835 13.0069 14.6127 13.0484 14.6492 13.0827L15.2312 13.6637C15.2657 13.7001 15.3072 13.7291 15.3533 13.749C15.3994 13.7688 15.449 13.779 15.4992 13.779C15.5494 13.779 15.599 13.7688 15.6451 13.749C15.6912 13.7291 15.7327 13.7001 15.7672 13.6637L21.1942 8.24668C21.2306 8.21237 21.2596 8.17099 21.2794 8.12508C21.2992 8.07916 21.3094 8.02969 21.3094 7.97968C21.3094 7.92968 21.2992 7.8802 21.2794 7.83428C21.2596 7.78837 21.2306 7.74699 21.1942 7.71268Z" fill="white"/>
</svg>
