<svg width="19" height="18" viewBox="0 0 19 18" fill="none" xmlns="http://www.w3.org/2000/svg">
<path fill-rule="evenodd" clip-rule="evenodd" d="M15.898 9.73495C16.324 9.73495 16.67 10.08 16.67 10.506V14.707C16.6689 15.58 16.3217 16.417 15.7043 17.0343C15.087 17.6516 14.25 17.9989 13.377 18H3.293C2.41997 17.9989 1.58299 17.6516 0.965667 17.0343C0.348339 16.417 0.00105854 15.58 0 14.707V4.62295C0.00132362 3.75019 0.348752 2.91357 0.96608 2.29662C1.58341 1.67967 2.42023 1.33275 3.293 1.33195H7.495C7.69481 1.33915 7.88403 1.42358 8.02284 1.56748C8.16165 1.71138 8.23922 1.90351 8.23922 2.10345C8.23922 2.30339 8.16165 2.49553 8.02284 2.63943C7.88403 2.78332 7.69481 2.86776 7.495 2.87495H3.293C2.82922 2.87495 2.3844 3.05905 2.05627 3.38681C1.72814 3.71456 1.54353 4.15917 1.543 4.62295V14.707C1.543 15.672 2.328 16.457 3.293 16.457H13.377C14.342 16.457 15.127 15.672 15.127 14.707V10.507C15.127 10.08 15.472 9.73495 15.898 9.73495ZM17.53 2.64395C17.8319 2.94653 18.0015 3.35651 18.0015 3.78395C18.0015 4.21139 17.8319 4.62137 17.53 4.92395L10.807 11.646C10.506 11.946 10.091 12.118 9.667 12.118H6.975L6.36 12.732C6.28853 12.8039 6.20354 12.861 6.10992 12.8999C6.0163 12.9389 5.9159 12.9589 5.8145 12.9589C5.7131 12.9589 5.6127 12.9389 5.51908 12.8999C5.42546 12.861 5.34047 12.8039 5.269 12.732C5.19734 12.6604 5.14049 12.5755 5.1017 12.482C5.06291 12.3884 5.04294 12.2882 5.04294 12.187C5.04294 12.0857 5.06291 11.9855 5.1017 11.8919C5.14049 11.7984 5.19734 11.7135 5.269 11.642L5.883 11.027V8.33295C5.883 7.90895 6.055 7.49495 6.355 7.19395L13.079 0.470952C13.3815 0.169655 13.7911 0.000488281 14.218 0.000488281C14.6449 0.000488281 15.0545 0.169655 15.357 0.470952L17.53 2.64395ZM15.055 5.20995L16.439 3.83195L14.266 1.56195L12.826 2.98195L15.055 5.20995ZM9.668 10.575L13.962 6.29995L11.727 4.06395L7.447 8.28395C7.44017 8.29039 7.4347 8.29813 7.43092 8.30672C7.42714 8.31531 7.42513 8.32457 7.425 8.33395V10.574L9.668 10.575Z" fill="black"/>
</svg>
