<svg width="21" height="24" viewBox="0 0 21 24" fill="none" xmlns="http://www.w3.org/2000/svg">
<g clip-path="url(#clip0_823_326)">
<path opacity="0.4" fill-rule="evenodd" clip-rule="evenodd" d="M19.0439 0.0239258H1.93294C0.545936 0.0239258 0.0339355 0.529926 0.0339355 1.89993V18.4399C0.0339355 18.5949 0.0399355 18.7389 0.0539355 18.8719C0.0859355 19.1719 0.0919355 19.4619 0.373936 19.7919C0.400936 19.8239 0.687936 20.0349 0.687936 20.0349C0.842936 20.1099 0.947936 20.1649 1.12294 20.2349L9.54893 23.7219C9.98593 23.9199 10.1689 23.9969 10.4869 23.9909H10.4889C10.8069 23.9969 10.9899 23.9199 11.4269 23.7209L19.8529 20.2349C20.0279 20.1649 20.1329 20.1099 20.2879 20.0349C20.2879 20.0349 20.5759 19.8239 20.6029 19.7919C20.8849 19.4619 20.8909 19.1719 20.9229 18.8719C20.9359 18.7389 20.9429 18.5949 20.9429 18.4399V1.89993C20.9429 0.529926 20.4309 0.0239258 19.0429 0.0239258H19.0439ZM17.8979 16.6519L17.8939 16.6899L17.8899 16.7319L17.8819 16.7699L17.8709 16.8089L17.8629 16.8429L17.8509 16.8809L17.8359 16.9149L17.8209 16.9449L17.8049 16.9799L17.7859 17.0099L17.7659 17.0409L17.7439 17.0709L17.7239 17.1019L17.7019 17.1289L17.6749 17.1559L17.6519 17.1789L17.6209 17.2049L17.5939 17.2279L17.5629 17.2509L17.5329 17.2699L17.5019 17.2929L17.4669 17.3119L17.4319 17.3269L17.3979 17.3469L17.3589 17.3609L17.3209 17.3769L17.2819 17.3879L17.2439 17.3999L17.2089 17.4109L17.1709 17.4189L17.1359 17.4259L17.1019 17.4339L17.0629 17.4419L17.0249 17.4449L16.9899 17.4489L16.9519 17.4529L16.9089 17.4569L16.8709 17.4609H16.7099L16.6709 17.4569H16.6289L16.5899 17.4529L16.5519 17.4489L16.5099 17.4449L16.4709 17.4379L16.4329 17.4339L16.3939 17.4259L16.3559 17.4189L16.3169 17.4109L16.2789 17.4029L16.2399 17.3919L16.2059 17.3839L16.1669 17.3729L16.1289 17.3609L16.0939 17.3459L16.0559 17.3349L16.0209 17.3229L15.9829 17.3079L15.9479 17.2929L15.9139 17.2779L15.8789 17.2579L15.8439 17.2429L15.8099 17.2239L15.7799 17.2049L15.7439 17.1859L15.7139 17.1669L15.6829 17.1479L15.6529 17.1249L15.6219 17.1019L15.5909 17.0789L15.5599 17.0569L15.5329 17.0339L15.5029 17.0069L15.5249 16.9769L15.5519 16.9499L15.5749 16.9199L15.6019 16.8889L15.6249 16.8619L15.6479 16.8319L15.6749 16.8009L15.6979 16.7739L15.7249 16.7439L15.7479 16.7169L15.7749 16.6869L15.7979 16.6559L15.8209 16.6289L15.8479 16.5989L15.8709 16.5689L15.8979 16.5409L15.9209 16.5109L15.9519 16.5339L15.9869 16.5569L16.0169 16.5799L16.0519 16.6029L16.0829 16.6219L16.1179 16.6439L16.1479 16.6639L16.1829 16.6789L16.2129 16.6979L16.2479 16.7129L16.2829 16.7279L16.3169 16.7439L16.3519 16.7549L16.3869 16.7699L16.4249 16.7819L16.4629 16.7929L16.4979 16.8049L16.5369 16.8119L16.5749 16.8199L16.6129 16.8279L16.6559 16.8309L16.6939 16.8389H16.7329L16.7749 16.8429H16.8589L16.9019 16.8389L16.9399 16.8309L16.9749 16.8239L17.0089 16.8159L17.0399 16.8049L17.0669 16.7889L17.0979 16.7669L17.1209 16.7399L17.1359 16.7099L17.1479 16.6749L17.1519 16.6369V16.6289L17.1479 16.5829L17.1329 16.5449L17.1129 16.5189L17.0859 16.4959L17.0559 16.4729L17.0249 16.4579L16.9899 16.4419L16.9519 16.4269L16.9059 16.4079L16.8789 16.3999L16.8489 16.3929L16.8129 16.3809L16.7789 16.3739L16.7399 16.3619L16.7019 16.3549L16.6599 16.3429L16.6209 16.3349L16.5789 16.3239L16.5399 16.3159L16.5019 16.3049L16.4629 16.2969L16.4249 16.2859L16.3899 16.2739L16.3519 16.2669L16.3169 16.2549L16.2829 16.2439L16.2479 16.2319L16.2059 16.2169L16.1669 16.2019L16.1289 16.1869L16.0899 16.1709L16.0559 16.1519L16.0179 16.1329L15.9869 16.1139L15.9519 16.0949L15.9219 16.0719L15.8909 16.0529L15.8639 16.0299L15.8369 16.0039L15.8099 15.9769L15.7869 15.9499L15.7639 15.9229L15.7439 15.8969L15.7249 15.8669L15.7059 15.8319L15.6909 15.8049L15.6789 15.7749L15.6679 15.7409L15.6559 15.7099L15.6479 15.6719L15.6409 15.6379L15.6369 15.5989L15.6329 15.5609L15.6289 15.5189V15.4319L15.6329 15.3929L15.6369 15.3589L15.6409 15.3209L15.6479 15.2869L15.6559 15.2519L15.6679 15.2179L15.6749 15.1839L15.6909 15.1489L15.7059 15.1149L15.7209 15.0809L15.7409 15.0459L15.7599 15.0119L15.7829 14.9819L15.8059 14.9509L15.8329 14.9209L15.8599 14.8939L15.8869 14.8639L15.9169 14.8359L15.9439 14.8169L15.9749 14.7939L16.0059 14.7719L16.0359 14.7519L16.0709 14.7329L16.1059 14.7179L16.1399 14.6989L16.1749 14.6839L16.2139 14.6719L16.2519 14.6569L16.2869 14.6459L16.3169 14.6379L16.3519 14.6299L16.3869 14.6229L16.4249 14.6149L16.4599 14.6069L16.4979 14.6039L16.5369 14.5999L16.5749 14.5959L16.6129 14.5919H16.7789L16.8209 14.5959L16.8629 14.5999H16.9019L16.9439 14.6039L16.9829 14.6109L17.0249 14.6149L17.0629 14.6229L17.0979 14.6299L17.1359 14.6379L17.1749 14.6459L17.2089 14.6529L17.2479 14.6649L17.2819 14.6759L17.3169 14.6839L17.3559 14.6989L17.3899 14.7109L17.4249 14.7259L17.4589 14.7409L17.4979 14.7559L17.5319 14.7759L17.5629 14.7909L17.5979 14.8099L17.6319 14.8289L17.6629 14.8479L17.6979 14.8709L17.7279 14.8899L17.7589 14.9129L17.7899 14.9359L17.8199 14.9579L17.7979 14.9889L17.7779 15.0189L17.7549 15.0499L17.7319 15.0799L17.7089 15.1149L17.6899 15.1449L17.6669 15.1759L17.6439 15.2059L17.6239 15.2369L17.6019 15.2669L17.5779 15.2979L17.5589 15.3279L17.5359 15.3629L17.5129 15.3929L17.4899 15.4229L17.4699 15.4539L17.4479 15.4839L17.4169 15.4619L17.3819 15.4429L17.3519 15.4229L17.3209 15.4009L17.2859 15.3859L17.2559 15.3659L17.2209 15.3509L17.1909 15.3359L17.1549 15.3209L17.1249 15.3059L17.0899 15.2939L17.0599 15.2789L17.0169 15.2679L16.9789 15.2559L16.9399 15.2449L16.9019 15.2369L16.8629 15.2289L16.8249 15.2219L16.7869 15.2179L16.7469 15.2139L16.7129 15.2099H16.6299L16.5879 15.2179L16.5489 15.2259L16.5139 15.2329L16.4839 15.2479L16.4569 15.2639L16.4219 15.2939L16.3989 15.3289L16.3839 15.3629L16.3799 15.4009V15.4089L16.3839 15.4589L16.4029 15.4999L16.4179 15.5229L16.4449 15.5499L16.4799 15.5689L16.5099 15.5879L16.5489 15.6029L16.5909 15.6189L16.6379 15.6339L16.6679 15.6409L16.6979 15.6529L16.7339 15.6599L16.7679 15.6719L16.8069 15.6799L16.8489 15.6909L16.8909 15.7019L16.9339 15.7139L16.9759 15.7209L17.0139 15.7329L17.0559 15.7439L17.0959 15.7519L17.1339 15.7629L17.1719 15.7749L17.2059 15.7859L17.2449 15.7979L17.2799 15.8089L17.3139 15.8209L17.3569 15.8359L17.3949 15.8549L17.4329 15.8699L17.4719 15.8899L17.5069 15.9079L17.5409 15.9279L17.5709 15.9459L17.6029 15.9689L17.6329 15.9889L17.6639 16.0149L17.6939 16.0419L17.7219 16.0719L17.7489 16.0989L17.7719 16.1289L17.7949 16.1639L17.8139 16.1939L17.8339 16.2289L17.8489 16.2589L17.8599 16.2929L17.8719 16.3279L17.8789 16.3619L17.8869 16.3999L17.8949 16.4389L17.8989 16.4769L17.9019 16.5189V16.6099L17.8979 16.6519ZM15.2009 17.4149H12.9979V14.6379H15.2199V15.2679H13.7319V15.7199H15.0699V16.3119H13.7319V16.7859H15.2399V17.4149H15.1999H15.2009ZM12.3919 17.4149H11.6879V15.7729L11.6689 15.8029L11.6459 15.8379L11.6259 15.8679L11.6039 15.8989L11.5839 15.9329L11.5609 15.9629L11.5419 15.9939L11.5229 16.0289L11.4999 16.0589L11.4799 16.0899L11.4579 16.1199L11.4379 16.1549L11.4149 16.1849L11.3959 16.2159L11.3769 16.2499L11.3539 16.2809L11.3339 16.3109L11.3119 16.3459L11.2919 16.3759L11.2689 16.4069L11.2499 16.4419L11.2299 16.4719L11.2079 16.5019L11.1879 16.5369L11.1659 16.5669L11.1459 16.5979L11.1229 16.6279L11.1039 16.6629L11.0839 16.6929L11.0619 16.7239L11.0419 16.7589L11.0189 16.7889L10.9999 16.8189L10.9769 16.8539L10.9569 16.8839H10.9429L10.9199 16.8509L10.8999 16.8199L10.8769 16.7849L10.8569 16.7549L10.8349 16.7209L10.8149 16.6899L10.7929 16.6549L10.7729 16.6249L10.7499 16.5909L10.7309 16.5609L10.7079 16.5259L10.6879 16.4949L10.6659 16.4609L10.6459 16.4309L10.6239 16.3959L10.6039 16.3659L10.5809 16.3309L10.5579 16.3009L10.5379 16.2659L10.5159 16.2359L10.4959 16.2009L10.4739 16.1709L10.4539 16.1359L10.4309 16.1059L10.4119 16.0709L10.3889 16.0409L10.3689 16.0059L10.3469 15.9759L10.3269 15.9409L10.3039 15.9109L10.2849 15.8759L10.2619 15.8459L10.2419 15.8109L10.2199 15.7809V17.4149H9.48894V14.6379H10.2779L10.2969 14.6679L10.3159 14.7029L10.3389 14.7329L10.3589 14.7669L10.3769 14.7979L10.3969 14.8319L10.4159 14.8619L10.4389 14.8969L10.4589 14.9269L10.4769 14.9579L10.4969 14.9919L10.5159 15.0219L10.5389 15.0569L10.5589 15.0869L10.5769 15.1219L10.5969 15.1519L10.6199 15.1819L10.6389 15.2169L10.6579 15.2469L10.6779 15.2819L10.6959 15.3119L10.7199 15.3459L10.7389 15.3759L10.7579 15.4109L10.7779 15.4409L10.7959 15.4709L10.8199 15.5059L10.8389 15.5359L10.8579 15.5709L10.8779 15.6009L10.8959 15.6359L10.9199 15.6659L10.9389 15.6999L10.9579 15.7299L10.9779 15.6999L10.9969 15.6659L11.0189 15.6359L11.0389 15.6009L11.0579 15.5709L11.0779 15.5369L11.0999 15.5069L11.1199 15.4719L11.1389 15.4419L11.1579 15.4119L11.1809 15.3769L11.2009 15.3469L11.2189 15.3119L11.2389 15.2819L11.2619 15.2469L11.2809 15.2169L11.3009 15.1829L11.3189 15.1529L11.3389 15.1219L11.3619 15.0879L11.3809 15.0569L11.4009 15.0229L11.4189 14.9929L11.4419 14.9579L11.4619 14.9279L11.4809 14.8969L11.5009 14.8629L11.5229 14.8329L11.5429 14.7979L11.5609 14.7679L11.5809 14.7329L11.6039 14.7029L11.6239 14.6689L11.6419 14.6379H12.4299V17.4149H12.3919ZM7.93094 16.2699L7.91894 16.2349L7.90394 16.1969L7.88894 16.1629L7.87694 16.1279L7.86194 16.0939L7.84694 16.0559L7.83494 16.0209L7.81894 15.9869L7.80394 15.9519L7.79294 15.9179L7.77694 15.8799L7.76594 15.8449L7.74994 15.8109L7.73494 15.7759L7.72294 15.7419L7.70794 15.7039L7.69294 15.6689L7.68094 15.6349L7.66594 15.5999L7.64994 15.5619L7.63894 15.5279L7.62294 15.4929L7.60794 15.5279L7.59694 15.5619L7.58094 15.5999L7.56594 15.6349L7.55394 15.6689L7.53894 15.7039L7.52294 15.7419L7.50794 15.7759L7.49694 15.8109L7.48094 15.8449L7.46594 15.8799L7.45394 15.9179L7.43894 15.9519L7.42394 15.9869L7.41194 16.0209L7.39694 16.0559L7.38094 16.0939L7.36594 16.1279L7.35394 16.1629L7.33894 16.1969L7.32394 16.2349L7.31194 16.2699L7.29694 16.3039H7.94594L7.93094 16.2699ZM9.13793 17.4139H8.38494L8.36894 17.3799L8.35793 17.3449L8.34194 17.3109L8.32693 17.2729L8.31594 17.2389L8.29994 17.2039L8.28493 17.1699L8.27293 17.1359L8.25794 17.1009L8.24193 17.0669L8.23094 17.0329L8.21593 16.9939L8.19993 16.9599L8.18894 16.9259L8.17294 16.8909H7.06994L7.05494 16.9259L7.04294 16.9599L7.02794 16.9939L7.01194 17.0329L7.00094 17.0669L6.98494 17.1009L6.96994 17.1359L6.95794 17.1699L6.94294 17.2039L6.92794 17.2389L6.91594 17.2729L6.90094 17.3109L6.88494 17.3449L6.87394 17.3799L6.85794 17.4139H6.08194L6.09694 17.3799L6.11194 17.3449L6.12794 17.3109L6.14294 17.2729L6.15494 17.2389L6.16994 17.2039L6.18594 17.1699L6.20094 17.1359L6.21594 17.1009L6.23194 17.0629L6.24694 17.0289L6.26194 16.9939L6.27394 16.9599L6.28894 16.9259L6.30494 16.8909L6.31994 16.8529L6.33594 16.8189L6.35094 16.7849L6.36594 16.7499L6.38194 16.7159L6.39294 16.6819L6.40794 16.6429L6.42394 16.6089L6.43894 16.5749L6.45494 16.5399L6.46994 16.5059L6.48594 16.4719L6.50094 16.4339L6.51194 16.3989L6.52794 16.3649L6.54294 16.3309L6.55794 16.2959L6.57394 16.2619L6.58894 16.2239L6.60494 16.1899L6.61994 16.1549L6.63194 16.1209L6.64694 16.0869L6.66194 16.0519L6.67794 16.0139L6.69294 15.9799L6.70794 15.9449L6.72394 15.9109L6.73894 15.8769L6.75094 15.8419L6.76594 15.8079L6.78194 15.7699L6.79694 15.7359L6.81194 15.7009L6.82794 15.6669L6.84294 15.6329L6.85794 15.5979L6.86994 15.5599L6.88494 15.5259L6.90094 15.4919L6.91594 15.4569L6.93094 15.4229L6.94694 15.3889L6.96194 15.3499L6.97794 15.3159L6.98894 15.2819L7.00494 15.2469L7.01994 15.2129L7.03494 15.1789L7.05094 15.1409L7.06594 15.1059L7.08094 15.0719L7.09694 15.0379L7.10794 15.0029L7.12394 14.9689L7.13894 14.9309L7.15494 14.8959L7.16994 14.8619L7.18494 14.8279L7.20094 14.7929L7.21594 14.7589L7.22794 14.7209L7.24294 14.6869L7.25794 14.6519L7.27394 14.6179H7.98494L7.99994 14.6519L8.01594 14.6869L8.03094 14.7209L8.04593 14.7589L8.05793 14.7929L8.07294 14.8279L8.08893 14.8619L8.10394 14.8959L8.11994 14.9309L8.13494 14.9689L8.14993 15.0029L8.16594 15.0379L8.17694 15.0719L8.19293 15.1059L8.20794 15.1409L8.22293 15.1789L8.23894 15.2129L8.25393 15.2469L8.26994 15.2819L8.28493 15.3159L8.29593 15.3499L8.31194 15.3889L8.32693 15.4229L8.34194 15.4569L8.35793 15.4919L8.37294 15.5259L8.38894 15.5599L8.40394 15.5979L8.41594 15.6329L8.43093 15.6669L8.44594 15.7009L8.46194 15.7359L8.47694 15.7699L8.49193 15.8079L8.50794 15.8419L8.52293 15.8769L8.53493 15.9109L8.54994 15.9449L8.56594 15.9799L8.58094 16.0139L8.59593 16.0519L8.61194 16.0869L8.62694 16.1209L8.64194 16.1549L8.65394 16.1899L8.66893 16.2239L8.68494 16.2619L8.69993 16.2959L8.71494 16.3309L8.73094 16.3649L8.74594 16.3989L8.76194 16.4339L8.77293 16.4719L8.78794 16.5059L8.80394 16.5399L8.81894 16.5749L8.83393 16.6089L8.84994 16.6429L8.86493 16.6819L8.88093 16.7159L8.89194 16.7499L8.90794 16.7849L8.92294 16.8189L8.93793 16.8529L8.95394 16.8909L8.96894 16.9259L8.98493 16.9599L8.99994 16.9939L9.01093 17.0289L9.02694 17.0629L9.04193 17.1009L9.05793 17.1359L9.07294 17.1699L9.08794 17.2039L9.10394 17.2389L9.11894 17.2729L9.13093 17.3109L9.14594 17.3449L9.16094 17.3799L9.17694 17.4139H9.13793ZM5.76994 17.0599L5.73994 17.0829L5.71194 17.1029L5.68194 17.1249L5.65094 17.1449L5.62094 17.1669L5.58894 17.1869L5.55894 17.2049L5.52394 17.2249L5.48894 17.2429L5.45494 17.2629L5.41994 17.2779L5.38594 17.2969L5.34694 17.3119L5.31294 17.3269L5.27394 17.3419L5.23994 17.3579L5.20494 17.3689L5.16994 17.3809L5.13594 17.3919L5.09694 17.4029L5.06294 17.4149L5.02394 17.4229L4.98994 17.4299L4.95094 17.4379L4.91294 17.4449L4.87394 17.4489L4.83194 17.4529L4.79394 17.4569L4.75094 17.4609L4.71294 17.4649L4.66994 17.4679H4.50494L4.46694 17.4649L4.42394 17.4609L4.38594 17.4569L4.34794 17.4529L4.30894 17.4489L4.27094 17.4419L4.23194 17.4339L4.19794 17.4259L4.15894 17.4189L4.12394 17.4069L4.08594 17.3999L4.05094 17.3879L4.01694 17.3729L3.98194 17.3609L3.94394 17.3459L3.90894 17.3309L3.87494 17.3159L3.83994 17.2999L3.80494 17.2809L3.77494 17.2629L3.73994 17.2429L3.70994 17.2239L3.67894 17.2049L3.64794 17.1819L3.61694 17.1599L3.58694 17.1369L3.55894 17.1139L3.53194 17.0909L3.50494 17.0639L3.47894 17.0409L3.45194 17.0149L3.42494 16.9879L3.40194 16.9609L3.37894 16.9309L3.35494 16.9039L3.33594 16.8739L3.31294 16.8429L3.29394 16.8129L3.27394 16.7819L3.25594 16.7469L3.23594 16.7169L3.22094 16.6829L3.20594 16.6479L3.18994 16.6139L3.17494 16.5799L3.16294 16.5499L3.14794 16.5149L3.13994 16.4799L3.12894 16.4459L3.12094 16.4079L3.10894 16.3739L3.10194 16.3349L3.09794 16.3009L3.08994 16.2629L3.08594 16.2289L3.08194 16.1909L3.07894 16.1519L3.07494 16.1139V15.9879L3.07894 15.9459V15.9079L3.08194 15.8699L3.08594 15.8279L3.09394 15.7899L3.09794 15.7519L3.10594 15.7179L3.11694 15.6799L3.12494 15.6409L3.13594 15.6069L3.14794 15.5689L3.15894 15.5349L3.17494 15.4959L3.18994 15.4619L3.20594 15.4279L3.22094 15.3929L3.23594 15.3589L3.25594 15.3249L3.27494 15.2949L3.29394 15.2639L3.31394 15.2339L3.33294 15.2029L3.35494 15.1729L3.37894 15.1419L3.40194 15.1119L3.42494 15.0839L3.45194 15.0579L3.47494 15.0309L3.50194 15.0039L3.52894 14.9779L3.55494 14.9549L3.58594 14.9279L3.61294 14.9049L3.64294 14.8819L3.67494 14.8629L3.70494 14.8399L3.73594 14.8209L3.76594 14.8019L3.80094 14.7829L3.83594 14.7629L3.87094 14.7449L3.90494 14.7299L3.93994 14.7139L3.97794 14.6949L4.00894 14.6839L4.04694 14.6719L4.08194 14.6569L4.11694 14.6489L4.15094 14.6379L4.18994 14.6299L4.22394 14.6189L4.26294 14.6109L4.30094 14.6069L4.33994 14.5999L4.37794 14.5959L4.41694 14.5919L4.45494 14.5879L4.49394 14.5849H4.65894L4.70094 14.5879L4.74394 14.5919H4.78194L4.81994 14.5959L4.86294 14.6039L4.89694 14.6069L4.93594 14.6149L4.97394 14.6229L5.00894 14.6299L5.04294 14.6379L5.07794 14.6459L5.11294 14.6569L5.14694 14.6649L5.17694 14.6759L5.21294 14.6879L5.24694 14.7029L5.28194 14.7179L5.31594 14.7329L5.35094 14.7529L5.38594 14.7679L5.41594 14.7869L5.45094 14.8059L5.48094 14.8249L5.51594 14.8439L5.54694 14.8669L5.57694 14.8859L5.60894 14.9089L5.63894 14.9319L5.66994 14.9579L5.69994 14.9809L5.67794 15.0109L5.65094 15.0389L5.62794 15.0689L5.60094 15.0989L5.57794 15.1299L5.55494 15.1569L5.52794 15.1869L5.50494 15.2169L5.48194 15.2449L5.45494 15.2749L5.43194 15.3049L5.40494 15.3359L5.38194 15.3629L5.35894 15.3929L5.33194 15.4229L5.30894 15.4539L5.28194 15.4809L5.25894 15.5109L5.22794 15.4889L5.19794 15.4619L5.16594 15.4429L5.13594 15.4199L5.10494 15.4009L5.07494 15.3809L5.04294 15.3629L5.00894 15.3429L4.97794 15.3289L4.94794 15.3129L4.91594 15.3019L4.88194 15.2899L4.84694 15.2789L4.81294 15.2709L4.77394 15.2639L4.73594 15.2559L4.69694 15.2519L4.65494 15.2479L4.61294 15.2449H4.53194L4.49394 15.2479L4.45894 15.2519L4.42094 15.2599L4.38594 15.2679L4.35094 15.2779L4.31694 15.2899L4.28194 15.3059L4.24794 15.3209L4.21694 15.3399L4.18694 15.3599L4.15494 15.3779L4.12794 15.4009L4.10094 15.4239L4.07494 15.4469L4.05094 15.4729L4.02494 15.4999L4.00094 15.5299L3.98194 15.5569L3.96294 15.5879L3.94294 15.6219L3.92494 15.6519L3.90894 15.6869L3.89794 15.7209L3.88194 15.7559L3.87094 15.7939L3.86294 15.8319L3.85494 15.8659L3.84794 15.9079L3.84394 15.9459L3.83994 15.9839V16.0719L3.84394 16.1099L3.84794 16.1449L3.85094 16.1829L3.85894 16.2169L3.86694 16.2519L3.87494 16.2859L3.88594 16.3199L3.89794 16.3499L3.91294 16.3889L3.92794 16.4229L3.94794 16.4579L3.96694 16.4879L3.98694 16.5179L4.00894 16.5489L4.03194 16.5759L4.05894 16.6029L4.08194 16.6289L4.10894 16.6519L4.13994 16.6749L4.16994 16.6979L4.20094 16.7169L4.23194 16.7359L4.26694 16.7509L4.30094 16.7669L4.33594 16.7819L4.37394 16.7929L4.41294 16.8049L4.45094 16.8119L4.48994 16.8199L4.52794 16.8239L4.56994 16.8279H4.65894L4.70094 16.8239L4.74394 16.8199L4.78194 16.8159L4.81994 16.8089L4.85894 16.8009L4.89694 16.7889L4.93194 16.7819L4.96594 16.7669L4.99694 16.7509L5.03194 16.7359L5.05894 16.7209L5.08894 16.7009V16.3549H4.52894V15.7979H5.79694V17.0369L5.76994 17.0599ZM4.53394 8.35493V11.1249H6.29294V12.3979H3.11894V3.20993H6.26594V4.48293H4.53394V7.08293H6.19994V8.35593H4.53394V8.35493ZM16.4689 8.63093H17.8579V10.7709C17.8579 11.9129 17.2889 12.4769 16.1379 12.4769H15.4379C14.2879 12.4769 13.7179 11.9129 13.7179 10.7699V4.83693C13.7179 3.69493 14.2879 3.12993 15.4379 3.12993H16.1249C17.2749 3.12993 17.8309 3.68193 17.8309 4.82393V6.69993H16.4429V4.90193C16.4429 4.53493 16.2709 4.36393 15.9129 4.36393H15.6759C15.3059 4.36393 15.1329 4.53393 15.1329 4.90193V10.7049C15.1329 11.0729 15.3049 11.2429 15.6759 11.2429H15.9399C16.2969 11.2429 16.4699 11.0729 16.4699 10.7049L16.4689 8.63093ZM11.5549 12.3979V3.20793H12.9699V12.3979H11.5549ZM9.50194 7.29193V4.98193C9.50194 4.61393 9.32994 4.44293 8.97194 4.44293H8.39093V7.82993H8.97293C9.32993 7.82993 9.50194 7.65993 9.50194 7.29193ZM9.19794 3.20893C10.3479 3.20893 10.9169 3.77293 10.9169 4.91593V7.35693C10.9169 8.49893 10.3479 9.06393 9.19693 9.06393H8.39093V12.3979H6.97594V3.20793H9.19794V3.20893ZM6.45694 20.7069H14.5569L10.4229 22.0539L6.45694 20.7069Z" fill="white"/>
</g>
<defs>
<clipPath id="clip0_823_326">
<rect width="21" height="24" fill="white"/>
</clipPath>
</defs>
</svg>
