<svg width="19" height="26" viewBox="0 0 19 26" fill="none" xmlns="http://www.w3.org/2000/svg">
<path d="M4.92911 25.819C1.78311 16.36 8.43011 12.909 8.43011 12.909C7.96511 17.955 11.1091 21.886 11.1091 21.886C12.2651 21.568 14.4721 20.081 14.4721 20.081C14.4721 21.886 13.3071 25.816 13.3071 25.816C13.3071 25.816 17.3841 22.941 18.6671 18.166C19.9481 13.39 16.2261 8.596 16.2261 8.596C16.4501 11.976 15.1961 15.3 12.7411 17.84C12.8641 17.71 12.9671 17.567 13.0461 17.41C13.4871 16.606 14.1961 14.514 13.7811 9.669C13.1971 2.868 6.44211 0 6.44211 0C7.02411 4.144 5.28011 5.098 1.19011 12.964C-2.89989 20.828 4.92911 25.819 4.92911 25.819Z" fill="white"/>
</svg>
