<svg width="24" height="24" viewBox="0 0 24 24" fill="none" xmlns="http://www.w3.org/2000/svg">
<path fill-rule="evenodd" clip-rule="evenodd" d="M3.465 8.40002C2.509 8.40002 1.732 9.16902 1.732 10.114V20.571C1.732 21.517 2.509 22.286 3.465 22.286H20.535C21.491 22.286 22.268 21.516 22.268 20.571V10.114C22.268 9.16902 21.491 8.40002 20.535 8.40002H3.465ZM3.465 24C1.554 24 0 22.462 0 20.571V10.114C0 8.22402 1.554 6.68602 3.465 6.68602H20.535C22.446 6.68602 24 8.22302 24 10.114V20.571C24 22.462 22.446 24 20.535 24H3.465ZM6.496 1.71402C6.38281 1.71481 6.27058 1.69325 6.16574 1.65057C6.0609 1.60789 5.96552 1.54494 5.88507 1.46532C5.80461 1.3857 5.74067 1.29098 5.6969 1.1866C5.65313 1.08221 5.63039 0.970212 5.63 0.857021C5.63039 0.74383 5.65313 0.63183 5.6969 0.527444C5.74067 0.423058 5.80461 0.328339 5.88507 0.24872C5.96552 0.169101 6.0609 0.106147 6.16574 0.0634699C6.27058 0.0207924 6.38281 -0.000769419 6.496 2.09682e-05H17.504C17.982 2.09682e-05 18.37 0.383021 18.37 0.857021C18.3695 0.970174 18.3467 1.08211 18.3028 1.18644C18.259 1.29077 18.1951 1.38543 18.1146 1.46503C18.0342 1.54462 17.9389 1.60758 17.8341 1.6503C17.7293 1.69303 17.6172 1.71468 17.504 1.71402H6.496ZM4.244 5.05802C4.13076 5.05868 4.01851 5.03699 3.91367 4.99421C3.80882 4.95142 3.71345 4.88837 3.63301 4.80867C3.55257 4.72897 3.48863 4.63419 3.44488 4.52975C3.40112 4.42531 3.37839 4.31326 3.378 4.20002C3.378 3.72602 3.766 3.34302 4.244 3.34302H19.756C20.234 3.34302 20.622 3.72602 20.622 4.20002C20.6216 4.31326 20.5989 4.42531 20.5551 4.52975C20.5114 4.63419 20.4474 4.72897 20.367 4.80867C20.2866 4.88837 20.1912 4.95142 20.0863 4.99421C19.9815 5.03699 19.8692 5.05868 19.756 5.05802H4.244Z" fill="white"/>
</svg>
