<svg width="20" height="16" viewBox="0 0 20 16" fill="none" xmlns="http://www.w3.org/2000/svg">
<path d="M19.788 0.212207C19.6527 0.0830151 19.472 0.0122493 19.285 0.0152069H17.857C17.6703 0.0125129 17.49 0.0832597 17.355 0.212207C17.2882 0.270488 17.2347 0.342432 17.1982 0.423173C17.1616 0.503914 17.1428 0.591568 17.143 0.680207V7.73021C17.107 7.65575 17.0575 7.58861 16.997 7.53221L9.073 0.150207C8.932 0.0182069 8.813 -0.0267931 8.716 0.0152069C8.619 0.0572069 8.571 0.167207 8.571 0.348207V7.73021C8.53531 7.65582 8.48615 7.58869 8.426 7.53221L0.502 0.150207C0.361 0.0182069 0.242 -0.0267931 0.145 0.0152069C0.048 0.0572069 0 0.167207 0 0.348207V15.6522C0 15.8322 0.049 15.9432 0.145 15.9852C0.242 16.0272 0.361 15.9812 0.502 15.8502L8.426 8.46821C8.48309 8.40909 8.53187 8.34248 8.571 8.27021V15.6522C8.571 15.8322 8.62 15.9432 8.716 15.9852C8.813 16.0262 8.932 15.9812 9.073 15.8492L16.997 8.46821C17.0544 8.40913 17.1035 8.34252 17.143 8.27021V15.3202C17.143 15.5002 17.213 15.6552 17.355 15.7872C17.49 15.9162 17.6703 15.9869 17.857 15.9842H19.286C19.479 15.9842 19.646 15.9192 19.788 15.7872C19.8547 15.7289 19.9082 15.6569 19.9448 15.5762C19.9813 15.4955 20.0002 15.4078 20 15.3192V0.680207C20.0002 0.591579 19.9813 0.503945 19.9448 0.423214C19.9082 0.342482 19.8547 0.27053 19.788 0.212207Z" fill="white"/>
</svg>
