<svg width="22" height="16" viewBox="0 0 22 16" fill="none" xmlns="http://www.w3.org/2000/svg">
<path d="M21.5349 6.96602C20.4549 2.12302 18.9339 0.928016 18.0079 0.450016C16.5239 -0.316984 14.8039 0.130016 14.2329 0.419016C13.5849 0.746016 13.1479 1.36902 12.4889 1.63902C11.7279 1.94902 10.6929 2.03402 9.91391 1.65902C9.29391 1.35902 8.74591 0.719016 7.99391 0.435016C7.04191 0.0750157 5.45391 -0.429984 3.88391 0.673016C3.51191 0.933016 0.86391 3.11002 0.0679103 9.90402C-0.42309 14.094 1.92191 15.443 1.83591 15.382C2.43991 15.805 3.79091 16.522 5.62191 15.4C6.84491 14.65 7.83791 13.17 7.83791 13.17C7.83791 13.17 8.28091 12.348 8.86791 11.998C9.28391 11.75 9.90591 11.938 9.90591 11.938H12.1079C12.1079 11.938 12.8069 11.852 13.2979 12.065C13.7739 12.268 14.0429 12.771 14.0429 12.771C14.0429 12.771 15.4939 14.608 16.8849 15.544C17.4769 15.942 19.8569 16.4 21.0849 14.93C21.8879 13.968 22.4349 11.01 21.5349 6.96602ZM9.77291 6.53702C9.77291 6.62456 9.75565 6.71125 9.72212 6.79211C9.68859 6.87298 9.63944 6.94645 9.57749 7.0083C9.51554 7.07016 9.442 7.1192 9.36108 7.15261C9.28017 7.18602 9.19345 7.20315 9.10591 7.20302H7.43791V8.87102C7.43791 9.04774 7.36777 9.21724 7.2429 9.3423C7.11803 9.46736 6.94864 9.53775 6.77191 9.53802H6.27191C6.18428 9.53815 6.09749 9.52098 6.0165 9.48751C5.93552 9.45404 5.86194 9.40491 5.79998 9.34295C5.73801 9.28099 5.68889 9.2074 5.65541 9.12642C5.62194 9.04544 5.60478 8.95864 5.60491 8.87102V7.20302H3.93491C3.75828 7.20302 3.58888 7.13285 3.46398 7.00795C3.33908 6.88305 3.26891 6.71365 3.26891 6.53702V6.03702C3.26891 5.66902 3.56791 5.37002 3.93591 5.37002H5.60391V3.70502C5.60391 3.33602 5.90191 3.03702 6.27091 3.03702H6.77091C7.13891 3.03702 7.43791 3.33602 7.43791 3.70502V5.37002H9.10591C9.47391 5.37002 9.77291 5.66802 9.77291 6.03702V6.53702ZM14.4709 8.87002C14.1394 8.87015 13.8214 8.73858 13.5869 8.50425C13.3524 8.26993 13.2205 7.95204 13.2204 7.62052C13.2203 7.289 13.3518 6.971 13.5862 6.73649C13.8205 6.50197 14.1384 6.37015 14.4699 6.37002C14.8014 6.36988 15.1194 6.50145 15.3539 6.73578C15.5885 6.97011 15.7203 7.288 15.7204 7.61952C15.7205 7.95104 15.589 8.26903 15.3546 8.50354C15.1203 8.73806 14.8024 8.86988 14.4709 8.87002ZM16.7639 6.09402C16.5986 6.09872 16.434 6.07021 16.2798 6.01019C16.1257 5.95016 15.9852 5.85984 15.8666 5.74455C15.748 5.62927 15.6537 5.49137 15.5893 5.33901C15.5249 5.18665 15.4917 5.02292 15.4917 4.85752C15.4917 4.69211 15.5249 4.52839 15.5893 4.37602C15.6537 4.22366 15.748 4.08576 15.8666 3.97048C15.9852 3.85519 16.1257 3.76487 16.2798 3.70484C16.434 3.64482 16.5986 3.61631 16.7639 3.62102C17.0858 3.63017 17.3914 3.76446 17.6158 3.99535C17.8402 4.22624 17.9657 4.53553 17.9657 4.85752C17.9657 5.1795 17.8402 5.48879 17.6158 5.71968C17.3914 5.95057 17.0858 6.08486 16.7639 6.09402Z" fill="white"/>
</svg>
