<svg width="20" height="4" viewBox="0 0 20 4" fill="none" xmlns="http://www.w3.org/2000/svg">
<g clip-path="url(#clip0_823_330)">
<path class="threepoints" d="M17.3601 4C18.4647 4 19.3601 3.10457 19.3601 2C19.3601 0.89543 18.4647 0 17.3601 0C16.2555 0 15.3601 0.89543 15.3601 2C15.3601 3.10457 16.2555 4 17.3601 4Z" fill="gray"/>
<path class="threepoints" d="M9.67993 4C10.7845 4 11.6799 3.10457 11.6799 2C11.6799 0.89543 10.7845 0 9.67993 0C8.57536 0 7.67993 0.89543 7.67993 2C7.67993 3.10457 8.57536 4 9.67993 4Z" fill="gray"/>
<path class="threepoints" d="M2 4C3.10457 4 4 3.10457 4 2C4 0.89543 3.10457 0 2 0C0.89543 0 0 0.89543 0 2C0 3.10457 0.89543 4 2 4Z" fill="gray"/>
</g>
<defs>
<clipPath id="clip0_823_330">
<rect width="20" height="4" fill="white"/>
</clipPath>
</defs>
</svg>