<svg width="21" height="16" viewBox="0 0 21 16" fill="none" xmlns="http://www.w3.org/2000/svg">
<g clip-path="url(#clip0_802_364)">
<path d="M11.1122 16L8.00023 14.654V0C8.00023 0 14.7642 1.147 15.6952 3.987C16.6262 6.829 15.1752 8.669 14.6652 8.723C13.2452 8.873 12.7052 7.975 12.7052 7.975V3.39L11.1612 2.742L11.1122 16ZM12.0002 14.32V16C12.0002 16 19.6662 13.662 20.7942 12.76C21.9222 11.86 18.1532 9.618 16.1282 10.056C16.1282 10.056 13.9762 10.155 12.0262 10.957C12.0072 10.965 12.0262 12.467 12.0262 12.467L16.9742 11.372L18.7172 12.102L12.0002 14.32ZM6.97623 13.547C6.97623 13.547 6.03423 14.023 3.93523 13.999C1.83523 13.975 -0.0237702 13.404 0.000229848 12.166C0.0242298 10.928 3.47623 9.571 6.95223 9V10.738L3.25923 11.69C3.25923 11.69 2.62723 12.476 3.47623 12.5C4.66697 12.5254 5.8548 12.3723 7.00023 12.046L6.97623 13.546V13.547Z" fill="white"/>
</g>
<defs>
<clipPath id="clip0_802_364">
<rect width="21" height="16" fill="white"/>
</clipPath>
</defs>
</svg>
