<svg width="22" height="22" viewBox="0 0 22 22" fill="none" xmlns="http://www.w3.org/2000/svg">
<g clip-path="url(#clip0_823_328)">
<path opacity="0.4" d="M0.0279258 10.277C0.026593 10.2743 0.0252597 10.2717 0.0239258 10.269C0.398926 4.535 5.14793 0 10.9539 0C17.0019 0 21.9059 4.925 21.9059 11C21.9059 17.075 17.0019 22 10.9529 22C6.01493 22 1.83993 18.719 0.472926 14.208L4.61993 15.927C4.82993 16.864 5.46993 17.687 6.41493 18.082C6.78347 18.2355 7.17868 18.3148 7.57792 18.3152C7.97715 18.3157 8.37255 18.2374 8.74146 18.0848C9.11036 17.9321 9.44552 17.7082 9.72771 17.4258C10.0099 17.1434 10.2336 16.808 10.3859 16.439C10.5529 16.033 10.6309 15.607 10.6199 15.182L14.4549 12.43L14.5489 12.431C16.8439 12.431 18.7089 10.552 18.7089 8.245C18.7089 5.937 16.8439 4.06 14.5489 4.06C12.2549 4.06 10.3889 5.937 10.3889 8.245V8.299L7.70893 12.209C7.27493 12.189 6.83893 12.266 6.42693 12.437C6.24747 12.5107 6.07565 12.6018 5.91393 12.709L0.0279258 10.276V10.277ZM9.74593 16.169C9.62849 16.454 9.45596 16.713 9.23822 16.9311C9.02049 17.1493 8.76183 17.3223 8.47708 17.4403C8.19233 17.5583 7.8871 17.6189 7.57887 17.6187C7.27065 17.6185 6.9655 17.5574 6.68093 17.439C6.15007 17.2157 5.72053 16.8039 5.47493 16.283L6.82893 16.847C7.70893 17.215 8.71893 16.796 9.08493 15.912C9.2612 15.4876 9.26245 15.0108 9.0884 14.5855C8.91436 14.1602 8.57914 13.821 8.15593 13.642L6.75593 13.06C7.32632 12.8422 7.95941 12.8569 8.51908 13.1009C9.07876 13.345 9.52035 13.7988 9.74893 14.365C9.86701 14.6511 9.92753 14.9578 9.92701 15.2673C9.9265 15.5768 9.86496 15.8833 9.74593 16.169ZM14.5489 11.034C13.812 11.0306 13.1064 10.735 12.587 10.2122C12.0675 9.68942 11.7766 8.98198 11.7779 8.245C11.7769 7.50819 12.0679 6.80101 12.5873 6.27841C13.1067 5.75582 13.8121 5.46044 14.5489 5.457C15.2861 5.45991 15.992 5.75506 16.5118 6.27771C17.0317 6.80036 17.323 7.50785 17.3219 8.245C17.3233 8.98233 17.032 9.69007 16.5122 10.2129C15.9923 10.7358 15.2862 11.0311 14.5489 11.034ZM12.4719 8.241C12.4719 9.398 13.4049 10.335 14.5539 10.335C15.7039 10.335 16.6359 9.398 16.6359 8.241C16.6375 7.68704 16.4191 7.15511 16.0287 6.76209C15.6383 6.36907 15.1079 6.14712 14.5539 6.145C14 6.14712 13.4695 6.36907 13.0791 6.76209C12.6887 7.15511 12.4703 7.68704 12.4719 8.241Z" fill="white"/>
</g>
<defs>
<clipPath id="clip0_823_328">
<rect width="22" height="22" fill="white"/>
</clipPath>
</defs>
</svg>
