<svg width="16" height="18" viewBox="0 0 16 18" fill="none" xmlns="http://www.w3.org/2000/svg">
<g clip-path="url(#clip0_802_374)">
<path d="M1.16788 5.86H1.11988C0.505883 5.86 0.00488281 6.342 0.00488281 6.93V11.595C0.00488281 12.185 0.504883 12.666 1.11988 12.666H1.16888C1.78288 12.666 2.28388 12.184 2.28388 11.595V6.93C2.28388 6.341 1.78188 5.858 1.16788 5.858V5.86ZM2.81788 13.395C2.81788 13.936 3.27788 14.378 3.84288 14.378H4.93788V16.897C4.93788 17.488 5.44088 17.97 6.05388 17.97H6.10188C6.71688 17.97 7.21788 17.488 7.21788 16.897V14.377H8.74988V16.897C8.74988 17.488 9.25388 17.97 9.86688 17.97H9.91388C10.5289 17.97 11.0299 17.488 11.0299 16.897V14.377H12.1259C12.6899 14.377 13.1509 13.937 13.1509 13.395V6.03H2.81788V13.394V13.395ZM10.5569 1.565L11.4269 0.275C11.4402 0.255521 11.4494 0.233526 11.4539 0.210369C11.4583 0.187212 11.4581 0.163381 11.453 0.140341C11.4479 0.117301 11.4382 0.0955384 11.4244 0.0763912C11.4107 0.057244 11.3931 0.0411166 11.3729 0.0290001C11.3318 0.00279723 11.2821 -0.00642612 11.2344 0.00327475C11.1866 0.0129756 11.1445 0.0408426 11.1169 0.0810001L10.2149 1.416C9.50415 1.13894 8.74771 0.997826 7.98488 1C7.22141 0.997765 6.46429 1.13888 5.75288 1.416L4.85288 0.0800001C4.82463 0.0403003 4.7822 0.0129735 4.73437 0.00366786C4.68654 -0.00563778 4.63696 0.00378911 4.59588 0.0300001C4.57556 0.0420331 4.55792 0.0580988 4.54405 0.0772077C4.53017 0.0963165 4.52035 0.118064 4.5152 0.14111C4.51005 0.164156 4.50967 0.188014 4.51409 0.211212C4.5185 0.234411 4.52762 0.256459 4.54088 0.276L5.41188 1.566C3.84188 2.305 2.78388 3.697 2.78388 5.295C2.78388 5.393 2.78988 5.49 2.79888 5.585H13.1699C13.1789 5.49 13.1839 5.393 13.1839 5.295C13.1839 3.697 12.1249 2.305 10.5559 1.565H10.5569ZM5.57988 3.875C5.5155 3.87646 5.45146 3.86519 5.39144 3.84183C5.33142 3.81847 5.27661 3.78348 5.23015 3.73888C5.1837 3.69428 5.1465 3.64094 5.12072 3.58193C5.09493 3.52292 5.08105 3.45939 5.07988 3.395C5.07988 3.13 5.30388 2.917 5.57988 2.917C5.85688 2.917 6.07988 3.13 6.07988 3.395C6.07871 3.45939 6.06484 3.52292 6.03905 3.58193C6.01326 3.64094 5.97607 3.69428 5.92961 3.73888C5.88315 3.78348 5.82834 3.81847 5.76832 3.84183C5.70831 3.86519 5.64427 3.87646 5.57988 3.875ZM10.3889 3.875C10.3245 3.87646 10.2605 3.86519 10.2004 3.84183C10.1404 3.81847 10.0856 3.78348 10.0392 3.73888C9.9927 3.69428 9.9555 3.64094 9.92972 3.58193C9.90393 3.52292 9.89005 3.45939 9.88888 3.395C9.88888 3.13 10.1129 2.917 10.3889 2.917C10.6649 2.917 10.8869 3.13 10.8869 3.395C10.8858 3.45926 10.8721 3.52268 10.8465 3.58162C10.8209 3.64056 10.7839 3.69386 10.7376 3.73846C10.6913 3.78306 10.6367 3.81808 10.5769 3.84152C10.517 3.86495 10.4531 3.87633 10.3889 3.875ZM14.8469 5.86H14.8009C14.1869 5.86 13.6839 6.342 13.6839 6.93V11.595C13.6839 12.185 14.1869 12.666 14.8009 12.666H14.8479C15.4629 12.666 15.9629 12.184 15.9629 11.595V6.93C15.9629 6.341 15.4619 5.858 14.8469 5.858V5.86Z" fill="white"/>
</g>
<defs>
<clipPath id="clip0_802_374">
<rect width="16" height="18" fill="white"/>
</clipPath>
</defs>
</svg>
