<svg width="20" height="18" viewBox="0 0 20 18" fill="none" xmlns="http://www.w3.org/2000/svg">
<g clip-path="url(#clip0_903_326)">
<path fill-rule="evenodd" clip-rule="evenodd" d="M1.31 1.48102C1.31 1.37502 1.397 1.28802 1.506 1.28802H7.111C7.164 1.28802 7.214 1.30802 7.251 1.34502L8.454 2.53002C8.735 2.80602 9.124 2.96302 9.519 2.96302H16.792C17.839 2.96302 18.69 3.80202 18.69 4.83202V5.02402H4.91C4.08 5.02402 3.405 5.69002 3.405 6.50702V16.712H3.208C2.161 16.712 1.31 15.873 1.31 14.843V1.48102ZM9.519 1.67502C9.467 1.67491 9.41711 1.65445 9.38 1.61802L8.177 0.434018C7.89302 0.154106 7.50974 -0.00193936 7.111 1.81978e-05H1.506C0.676 1.81978e-05 0 0.664018 0 1.48102V14.843C0 16.584 1.44 18 3.208 18H16.792C18.56 18 20 16.584 20 14.843V4.83202C20 3.09202 18.56 1.67502 16.792 1.67502H9.519Z" fill="white"/>
</g>
<defs>
<clipPath id="clip0_903_326">
<rect width="20" height="18" fill="white"/>
</clipPath>
</defs>
</svg>
