<svg width="18" height="20" viewBox="0 0 18 20" fill="none" xmlns="http://www.w3.org/2000/svg">
<path d="M16.879 4.198C16.224 2.976 15.319 2.003 14.19 1.304C12.79 0.44 11.044 0 9 0C6.956 0 5.21 0.439 3.81 1.305C2.68 2.003 1.776 2.977 1.122 4.198C0.0319999 6.234 0 8.27 0 8.494V19.411C0 19.495 0 19.571 0.002 19.626C0.015 19.973 0.252 20 0.323 20C0.466 20 0.545 19.93 0.773 19.707L0.786 19.695L2.934 17.018L5.078 19.673L5.102 19.699C5.27 19.864 5.575 19.983 5.825 19.983H6.035C6.285 19.983 6.59 19.863 6.759 19.699L6.772 19.686L8.926 17.015L11.07 19.671L11.095 19.698C11.264 19.863 11.568 19.983 11.818 19.983H12.028C12.278 19.983 12.583 19.863 12.752 19.699L12.765 19.686L14.919 17.015L17.063 19.679L17.087 19.706C17.177 19.794 17.409 19.999 17.604 19.999C17.848 19.999 18 19.774 18 19.41V8.494C18 8.269 17.969 6.234 16.879 4.198ZM5.472 10.202C4.366 10.202 3.47 9.327 3.47 8.248C3.47 7.168 4.366 6.294 5.472 6.294C6.578 6.294 7.474 7.169 7.474 8.248C7.474 9.327 6.578 10.202 5.472 10.202ZM12.476 10.202C11.37 10.202 10.473 9.327 10.473 8.248C10.473 7.168 11.37 6.294 12.476 6.294C13.581 6.294 14.478 7.169 14.478 8.248C14.478 9.327 13.581 10.202 12.476 10.202Z" fill="white"/>
</svg>
