<svg width="10" height="10" viewBox="0 0 10 10" fill="none" xmlns="http://www.w3.org/2000/svg">
<path d="M9 2.5H8.3955C8.46883 2.25689 8.50408 2.0039 8.5 1.75C8.5 0.785 7.715 0 6.75 0C5.939 0 5.3975 0.741 5.048 1.5425C4.7035 0.785 4.1345 0 3.25 0C2.285 0 1.5 0.785 1.5 1.75C1.5 2.048 1.5395 2.2945 1.6045 2.5H1C0.4485 2.5 0 2.9485 0 3.5V4.5C0 5.0515 0.4485 5.5 1 5.5V9C1 9.5515 1.4485 10 2 10H8C8.5515 10 9 9.5515 9 9V5.5C9.5515 5.5 10 5.0515 10 4.5V3.5C10 2.9485 9.5515 2.5 9 2.5ZM6.75 1C7.1635 1 7.5 1.3365 7.5 1.75C7.5 2.5 7.187 2.5 7 2.5H5.761C6.0165 1.712 6.3875 1 6.75 1ZM2.5 1.75C2.5 1.3365 2.8365 1 3.25 1C3.694 1 4.107 1.7625 4.349 2.5H3C2.813 2.5 2.5 2.5 2.5 1.75ZM1 3.5H4.5V4.5H1V3.5ZM2 9V5.5H4.5V9H2ZM8 9H5.5V5.5H8V9ZM5.5 4.5V3.5425L5.5085 3.5H9L9.0005 4.5H5.5Z" fill="white"/>
</svg>
