<svg width="24" height="23" viewBox="0 0 24 23" fill="none" xmlns="http://www.w3.org/2000/svg">
<g clip-path="url(#clip0_825_335)">
<g opacity="0.4">
<path d="M21.5 0.5H2.5C1.39543 0.5 0.5 1.39543 0.5 2.5V20.5C0.5 21.6046 1.39543 22.5 2.5 22.5H21.5C22.6046 22.5 23.5 21.6046 23.5 20.5V2.5C23.5 1.39543 22.6046 0.5 21.5 0.5Z" stroke="white"/>
<path d="M21.1481 11.0391C21.1481 11.5991 20.6931 12.0511 20.1351 12.0511H15.7871V10.7461H19.4521C19.5555 10.7461 19.6547 10.705 19.7279 10.6319C19.801 10.5587 19.8421 10.4595 19.8421 10.3561V6.0441C19.8421 5.94066 19.801 5.84147 19.7279 5.76833C19.6547 5.69519 19.5555 5.6541 19.4521 5.6541H17.4831C17.38 5.65463 17.2813 5.69595 17.2086 5.76903C17.1359 5.84211 17.0951 5.94101 17.0951 6.0441V8.0061C17.0951 8.2221 17.2691 8.3961 17.4831 8.3961H19.0561V9.7011H16.8001C16.2401 9.7011 15.7861 9.2491 15.7861 8.6901V5.3621C15.7861 4.8031 16.2391 4.3501 16.8001 4.3501H20.1341C20.6921 4.3501 21.1471 4.8031 21.1471 5.3621V11.0391H21.1481ZM21.1441 18.6091H19.8561V14.6221H18.9511C18.9007 14.622 18.8507 14.6318 18.8041 14.6511C18.7575 14.6703 18.7152 14.6986 18.6796 14.7343C18.644 14.77 18.6158 14.8124 18.5967 14.8591C18.5776 14.9057 18.5678 14.9557 18.5681 15.0061V18.6081H17.2801V14.6221H16.3741C16.3237 14.6221 16.2738 14.632 16.2273 14.6513C16.1808 14.6707 16.1385 14.699 16.1029 14.7346C16.0673 14.7703 16.0392 14.8126 16.02 14.8592C16.0008 14.9058 15.991 14.9557 15.9911 15.0061V18.6121H14.7031V14.3301C14.7031 13.7821 15.1491 13.3351 15.7021 13.3351H21.1441V18.6091ZM13.7301 9.7001H10.3951C9.8351 9.7001 9.3821 9.2481 9.3821 8.6891V5.3621C9.3821 4.8031 9.8351 4.3501 10.3951 4.3501H13.7301C14.2881 4.3501 14.7421 4.8031 14.7421 5.3621V8.6901C14.7421 9.2491 14.2881 9.7011 13.7301 9.7011V9.7001ZM13.0481 5.6541H11.0781C11.0268 5.65397 10.9761 5.66396 10.9287 5.68352C10.8813 5.70307 10.8383 5.73179 10.802 5.76803C10.7658 5.80427 10.7371 5.84732 10.7175 5.8947C10.698 5.94207 10.688 5.99285 10.6881 6.0441V8.0051C10.6881 8.2211 10.8621 8.3951 11.0781 8.3951H13.0471C13.0981 8.3951 13.1486 8.38498 13.1956 8.36532C13.2426 8.34566 13.2853 8.31685 13.3211 8.28057C13.3569 8.24429 13.3852 8.20126 13.4042 8.15397C13.4233 8.10668 13.4328 8.05608 13.4321 8.0051V6.0441C13.4328 5.99312 13.4233 5.94252 13.4042 5.89523C13.3852 5.84794 13.3569 5.80491 13.3211 5.76862C13.2853 5.73234 13.2426 5.70354 13.1956 5.68388C13.1486 5.66422 13.0991 5.65409 13.0481 5.6541ZM13.6721 17.6111C13.6721 18.1611 13.2251 18.6071 12.6741 18.6071H9.3881C9.25709 18.6074 9.12731 18.5818 9.00618 18.5319C8.88505 18.482 8.77495 18.4086 8.68217 18.3161C8.58939 18.2236 8.51576 18.1138 8.46547 17.9928C8.41518 17.8718 8.38923 17.7421 8.3891 17.6111V14.3301C8.38936 14.1991 8.41544 14.0694 8.46585 13.9485C8.51626 13.8276 8.59001 13.7178 8.68288 13.6253C8.77575 13.5329 8.88592 13.4597 9.0071 13.4099C9.12828 13.3601 9.25809 13.3347 9.3891 13.3351H12.6731C13.2231 13.3351 13.6711 13.7811 13.6711 14.3301V17.6101L13.6721 17.6111ZM12.0021 14.6211H10.0621C10.0116 14.621 9.96164 14.6308 9.91499 14.6501C9.86834 14.6693 9.82596 14.6976 9.79027 14.7333C9.75459 14.769 9.72631 14.8113 9.70706 14.858C9.68781 14.9046 9.67797 14.9546 9.6781 15.0051V16.9371C9.6781 17.1481 9.8491 17.3221 10.0621 17.3221L10.0661 17.3191V17.3221H11.9981V17.3191L12.0021 17.3221C12.1038 17.3216 12.2011 17.2807 12.2727 17.2086C12.3443 17.1364 12.3844 17.0388 12.3841 16.9371V15.0051C12.3844 14.9548 12.3747 14.9049 12.3556 14.8583C12.3365 14.8117 12.3084 14.7694 12.2729 14.7337C12.2374 14.698 12.1952 14.6697 12.1487 14.6504C12.1023 14.631 12.0524 14.6211 12.0021 14.6211ZM8.3371 11.0381C8.3371 11.5981 7.8821 12.0501 7.3231 12.0501H2.9751V10.7451H6.6401C6.69127 10.7451 6.74193 10.735 6.78919 10.7154C6.83645 10.6958 6.87938 10.667 6.91552 10.6308C6.95165 10.5946 6.98028 10.5516 6.99977 10.5043C7.01926 10.457 7.02923 10.4063 7.0291 10.3551V6.0441C7.02923 5.99285 7.01923 5.94207 6.99968 5.8947C6.98013 5.84732 6.9514 5.80427 6.91516 5.76803C6.87892 5.73179 6.83588 5.70307 6.7885 5.68352C6.74112 5.66396 6.69035 5.65397 6.6391 5.6541H4.6701C4.61901 5.65423 4.56846 5.66442 4.52131 5.68409C4.47416 5.70376 4.43135 5.73253 4.39533 5.76874C4.3593 5.80496 4.33075 5.84791 4.31133 5.89516C4.2919 5.9424 4.28197 5.99301 4.2821 6.0441V8.0061C4.2821 8.2221 4.4551 8.3961 4.6701 8.3961H6.2441V9.7011H3.9881C3.4281 9.7011 2.9751 9.2491 2.9751 8.6901V5.3621C2.9751 4.8031 3.4281 4.3501 3.9881 4.3501H7.3221C7.8821 4.3501 8.3361 4.8031 8.3361 5.3621V11.0391L8.3371 11.0381ZM7.3591 14.6211H4.6501C4.59972 14.6211 4.54983 14.631 4.5033 14.6503C4.45677 14.6697 4.4145 14.698 4.37892 14.7336C4.34334 14.7693 4.31515 14.8116 4.29596 14.8582C4.27678 14.9048 4.26697 14.9547 4.2671 15.0051V16.9371C4.2671 17.1491 4.4371 17.3231 4.6501 17.3231H7.3581V18.6111H3.9781V18.6071C3.4261 18.6071 2.9781 18.1611 2.9781 17.6101V14.3301C2.97889 14.0656 3.08466 13.8122 3.27217 13.6256C3.45968 13.4391 3.71358 13.3346 3.9781 13.3351H7.3581V14.6211H7.3591Z" fill="white"/>
</g>
</g>
<defs>
<clipPath id="clip0_825_335">
<rect width="24" height="23" fill="white"/>
</clipPath>
</defs>
</svg>
