<svg width="11" height="18" viewBox="0 0 11 18" fill="none" xmlns="http://www.w3.org/2000/svg">
<g clip-path="url(#clip0_802_372)">
<path d="M9.53811 0H1.65111C0.896109 0 0.287109 0.587 0.287109 1.31V16.678C0.287109 17.401 0.897109 17.988 1.65111 17.988H9.53811C10.2921 17.988 10.9021 17.401 10.9021 16.678V1.31C10.9021 0.587 10.2921 0 9.53811 0ZM3.64811 0.796H7.54211C7.64011 0.796 7.72011 0.936 7.72011 1.111C7.72011 1.285 7.64011 1.427 7.54211 1.427H3.64811C3.54911 1.427 3.47111 1.285 3.47111 1.111C3.47111 0.937 3.54911 0.796 3.64811 0.796ZM5.59511 16.694C5.11511 16.694 4.72511 16.319 4.72511 15.858C4.72511 15.396 5.11511 15.023 5.59511 15.023C6.07511 15.023 6.46511 15.396 6.46511 15.858C6.46511 16.319 6.07511 16.694 5.59511 16.694ZM9.88011 13.83H1.31011V2.21H9.88011V13.83Z" fill="white"/>
</g>
<defs>
<clipPath id="clip0_802_372">
<rect width="11" height="18" fill="white"/>
</clipPath>
</defs>
</svg>
