<svg width="20" height="16" viewBox="0 0 20 16" fill="none" xmlns="http://www.w3.org/2000/svg">
<path d="M6.067 0.00585938C4.055 0.00585938 2.417 1.79286 2.417 3.98886C2.417 6.18486 4.055 7.97186 6.067 7.97186C8.08 7.97186 9.718 6.18486 9.718 3.98886C9.718 1.79286 8.079 0.00585938 6.067 0.00585938ZM14.367 0.575859H14.342C13.497 0.582859 12.708 0.949859 12.12 1.60886C11.5362 2.27333 11.2211 3.13151 11.236 4.01586C11.243 4.91986 11.571 5.76886 12.159 6.40586C12.751 7.04886 13.536 7.40186 14.372 7.40186H14.397C15.242 7.39486 16.031 7.02786 16.619 6.36886C17.2028 5.70438 17.5179 4.84621 17.503 3.96186C17.488 2.08986 16.083 0.575859 14.367 0.575859ZM14.521 8.05486H14.218C12.806 8.05486 11.518 8.60686 10.545 9.51186C11.5201 10.285 12.2798 11.2961 12.751 12.4479C13.071 13.2279 13.255 14.0479 13.297 14.8939H20V13.6929C20 10.5839 17.542 8.05486 14.521 8.05486ZM12.123 14.8939C12.0733 14.022 11.8369 13.1709 11.4298 12.3983C11.0226 11.6257 10.4542 10.9497 9.763 10.4159C8.75653 9.63946 7.52113 9.21852 6.25 9.21886H5.885C2.635 9.21886 0 11.9299 0 15.2749V15.9949H12.135V15.2749C12.135 15.1469 12.131 15.0199 12.123 14.8939Z" fill="white"/>
</svg>
