<svg width="24" height="24" viewBox="0 0 24 24" fill="none" xmlns="http://www.w3.org/2000/svg">
<path d="M23.48 10.876C23.7124 10.6373 23.8756 10.3399 23.9522 10.0157C24.0289 9.69145 24.016 9.3525 23.915 9.035C23.71 8.379 23.178 7.911 22.525 7.812L16.714 6.931C16.5904 6.91123 16.4735 6.86129 16.3737 6.78559C16.274 6.7099 16.1944 6.61077 16.142 6.497L13.544 1C13.252 0.384 12.66 0 12 0C11.34 0 10.749 0.384 10.457 1.001L7.86004 6.497C7.80754 6.61085 7.72779 6.71001 7.62785 6.7857C7.52791 6.8614 7.41086 6.9113 7.28704 6.931L1.47704 7.813C0.821044 7.91 0.290044 8.38 0.0850442 9.035C-0.0161079 9.35264 -0.029068 9.69179 0.0475484 10.0162C0.124165 10.3406 0.287479 10.6382 0.520044 10.877L4.72404 15.155C4.90404 15.337 4.98604 15.6 4.94404 15.857L3.95204 21.897C3.90668 22.1525 3.91668 22.4149 3.98137 22.6662C4.04607 22.9176 4.16394 23.1521 4.32704 23.354C4.57352 23.6639 4.92099 23.8774 5.30881 23.9573C5.69663 24.0371 6.10018 23.9783 6.44904 23.791L11.646 20.939C11.7548 20.8808 11.8762 20.8503 11.9995 20.8503C12.1229 20.8503 12.2443 20.8808 12.353 20.939L17.55 23.791C17.803 23.93 18.073 24 18.35 24C18.859 24 19.34 23.764 19.672 23.354C20.002 22.946 20.135 22.428 20.047 21.897L19.055 15.857C19.0341 15.731 19.0429 15.6019 19.081 15.4799C19.119 15.358 19.1851 15.2467 19.274 15.155L23.478 10.876H23.48Z" fill="white"/>
</svg>
