<svg width="19" height="14" viewBox="0 0 19 14" fill="none" xmlns="http://www.w3.org/2000/svg">
<path opacity="0.9" d="M3.736 8.017V5.688H5.386C6.531 5.688 7.286 5.053 7.286 4.087C7.286 3.12 6.55 2.522 5.357 2.522C4.183 2.522 3.391 3.212 3.354 4.252H0.252C0.298 1.657 2.31 0 5.432 0C8.414 0 10.463 1.482 10.463 3.627C10.463 5.155 9.429 6.36 7.92 6.637V6.811C9.774 7.005 10.957 8.211 10.957 9.922C10.957 12.325 8.665 14 5.377 14C2.236 14 0.12 12.306 0 9.702H3.261C3.308 10.714 4.137 11.34 5.432 11.34C6.643 11.34 7.482 10.659 7.482 9.665C7.482 8.643 6.69 8.017 5.385 8.017H3.736ZM15.581 13.641V3.406H15.404L12.16 5.569V2.66L15.581 0.36H19V13.642H15.58L15.581 13.641Z" fill="white"/>
</svg>
