<svg width="0.9em" height="0.9em" viewBox="0 0 16 16" fill="none" xmlns="http://www.w3.org/2000/svg">
<g clip-path="url(#clip0_802_366)">
<path d="M3.564 1.357L3.542 1.377C3.588 1.329 3.652 1.277 3.696 1.249C4.948 0.435 6.396 0 8 0C9.502 0 10.908 0.415 12.11 1.136C12.196 1.188 12.434 1.351 12.556 1.499C11.4 0.222 7.993 2.962 7.993 2.962C6.816 2.054 5.733 1.436 4.926 1.216C4.252 1.031 3.786 1.186 3.564 1.357ZM13.869 2.565C13.834 2.525 13.795 2.489 13.76 2.449C13.467 2.127 13.107 2.049 12.782 2.071C12.487 2.163 11.122 2.655 9.44 4.243C9.44 4.243 11.334 6.084 12.493 7.966C13.652 9.849 14.345 11.328 13.919 13.381C15.2606 11.9099 16.003 9.98997 16 7.999C16.0028 5.98346 15.2407 4.04174 13.869 2.565ZM10.98 8.77C10.2419 7.94568 9.47918 7.14365 8.693 6.365C8.4618 6.13417 8.22845 5.9055 7.993 5.679L7.145 6.533C6.531 7.153 5.734 7.963 5.292 8.435C4.505 9.275 2.249 11.914 2.122 13.393C2.122 13.393 1.62 12.219 2.722 9.513C3.442 7.744 5.615 5.088 6.523 4.223C6.523 4.223 5.693 3.31 4.653 2.679L4.646 2.677C4.646 2.677 4.635 2.668 4.616 2.657C4.116 2.357 3.569 2.127 3.043 2.097C2.70781 2.12964 2.39585 2.28278 2.165 2.528C0.753775 4.09143 0.0160093 6.1483 0.111803 8.25227C0.207596 10.3562 1.12922 12.3376 2.67668 13.7663C4.22414 15.195 6.27259 15.9558 8.3775 15.8837C10.4824 15.8116 12.474 14.9123 13.92 13.381C13.92 13.379 13.751 12.325 12.675 10.811C12.422 10.457 11.497 9.351 10.979 8.771L10.98 8.77Z" fill="white"/>
</g>
<defs>
<clipPath id="clip0_802_366">
<rect width="16" height="16" fill="white"/>
</clipPath>
</defs>
</svg>
